<svg width="127" height="47" viewBox="0 0 127 47" fill="none" xmlns="http://www.w3.org/2000/svg">
<path fill-rule="evenodd" clip-rule="evenodd" d="M38.5093 11.4819L38.5106 11.4805L39.8372 12.2467V35.2474L38.5093 36.0149L37.1814 36.7811L35.8535 37.5473V37.5487L34.5256 38.3149L33.1977 39.0811L31.8698 39.8473V39.8486L30.5418 40.6148L27.886 42.1472V42.1485L26.5581 42.9147L25.2302 43.6809L23.9036 44.4471H23.9023V44.4485L22.5757 45.2147H22.5744L21.2478 45.9809H21.2465L19.9199 46.7471H19.9186L18.592 45.9809H18.5907L17.2641 45.2147H17.2628V45.2133L15.9362 44.4471H15.9349L14.6083 43.6809H14.607L13.2804 42.9147H13.2791V42.9134L11.9525 42.1472H11.9512L10.6246 41.381H10.6233L9.29667 40.6148H9.29534V40.6135L7.96877 39.8473H7.96744L6.64086 39.0811H6.63953L5.31295 38.3149H5.31163V38.3135L3.98505 37.5473H3.98372L2.65714 36.7811H2.65581L1.32791 36.0136L0 35.2474V12.2481L1.32791 11.4805L3.98372 9.94813L5.31163 9.1806L6.63953 8.4144L7.96744 7.6482L9.29534 6.88067L10.6233 6.11447H10.6246L11.9512 5.34827V5.34694H11.9525L13.2791 4.58074H13.2804L14.607 3.81453H14.6083L15.9349 3.04833V3.047H15.9362L17.2628 2.2808H17.2641L18.5907 1.5146H18.592L19.9186 0.74707H19.9199L21.2465 1.51327V1.5146H21.2478L22.5744 2.2808H22.5757L23.9023 3.047L25.2302 3.81321V3.81453L29.2139 6.11314V6.11447L31.8698 7.64687L33.1977 8.41307V8.4144H33.199L34.5256 9.1806V9.18193L34.5269 9.1806L35.8535 9.94681V9.94813H35.8548L37.1814 10.713V10.7157L37.1827 10.7143L38.5093 11.4805V11.4819ZM25.2309 13.1731L26.5588 13.9393H26.5602L27.8867 14.7068H27.8881L29.2146 15.473L30.5426 16.2405L29.216 17.0067H29.2146L27.8881 17.7729H27.8867L26.5602 18.5405H26.5588L25.2323 19.3067H25.2309L23.9043 20.0729H23.903L22.5764 20.8404H22.5751L19.9193 22.3728L17.2635 20.8391L15.9356 20.0729L14.6077 19.3067L13.2798 18.5391L11.9519 17.7729L10.624 17.0067L9.29605 16.2392L6.64024 14.7068L5.31233 13.9393L2.65652 12.4069L3.98442 11.6393L6.64024 10.1069L9.29605 11.6393L10.624 12.4069L13.2798 13.9393L14.6077 14.7068L17.2635 16.2392L18.5914 17.0067L19.9193 17.7729L22.5751 16.2392L19.9193 14.7068L18.5914 13.9393L15.9356 12.4069L14.6077 11.6393L11.9519 10.1069L10.624 9.3394L9.29605 8.57319L10.624 7.80699L11.9519 7.03946H11.9532L13.2798 6.27326H13.2811L14.6077 5.50573H14.609L15.9356 4.73953H15.9369L17.2635 3.97333H17.2648L18.5914 3.2058H18.5927L19.9193 2.43959H19.9206L22.5751 3.97333H22.5764L23.903 4.73953L26.5588 6.27326L29.2146 7.80566L30.5426 8.57319L33.1984 10.1069L34.5263 10.8731H34.5276L37.1821 12.4069L35.8555 13.1731H35.8542L34.5276 13.9393L34.5263 13.9406L33.1997 14.7068L33.1984 14.7055L31.8718 13.9393H31.8705L30.5439 13.1731L30.5426 13.1717L29.216 12.4069L29.2146 12.4055L27.8881 11.6393H27.8867L26.5602 10.8731L26.5588 10.8718L25.2309 10.1056L23.903 9.3394L22.5764 8.57319L22.5751 8.57187L21.2485 7.80566H21.2472L19.9206 7.03946H19.9193L18.5927 7.80566L18.5914 7.80699L17.2648 8.57319L18.5914 9.3394H18.5927L19.9193 10.1056H19.9206L21.2472 10.8731H21.2485L22.5751 11.6393H22.5764L23.903 12.4055L25.2309 13.1731Z" fill="black"/>
<path d="M84.5675 14.0454C82.7824 14.1408 81.3897 14.5473 80.3893 15.2649C79.2357 16.0745 78.6588 17.244 78.6588 18.7732V28.7045C78.6588 30.2338 79.2357 31.4122 80.3893 32.2398C81.3897 32.9418 82.7824 33.3395 84.5675 33.4328V30.6546C83.6499 30.4351 83.1911 29.857 83.1911 28.9204V18.5843C83.1911 17.634 83.6499 17.0474 84.5675 16.8246V14.0454Z" fill="#141414"/>
<path d="M90.4427 32.2398C89.4488 32.9373 88.0676 33.3343 86.299 33.4309V30.6978C87.3584 30.5192 87.8881 29.9268 87.8881 28.9204V25.2232H85.622V22.5244H92.1732V28.7045C92.1732 30.2338 91.5963 31.4122 90.4427 32.2398Z" fill="#141414"/>
<path d="M86.299 16.7808C87.3584 16.962 87.8881 17.5632 87.8881 18.5843V20.3925H92.1732V18.7732C92.1732 17.244 91.5963 16.0745 90.4427 15.2649C89.4488 14.5519 88.0676 14.1461 86.299 14.0473V16.7808Z" fill="#141414"/>
<path d="M55.1137 15.2649C56.0843 14.5686 57.4242 14.1653 59.1336 14.0548V16.8509C58.3215 17.0868 57.9154 17.6466 57.9154 18.5304C57.9154 19.214 58.1901 19.8527 58.7395 20.4464C59.3163 21.0402 60.3464 21.7598 61.8296 22.6054C63.725 23.6849 65.0297 24.6654 65.7439 25.547C66.458 26.4286 66.8151 27.4631 66.8151 28.6505C66.8151 30.1978 66.2246 31.3852 65.0434 32.2128C63.8898 33.0404 62.2005 33.4542 59.9755 33.4542C57.7781 33.4542 56.1163 33.0494 54.9901 32.2398C53.8639 31.4122 53.3008 30.2338 53.3008 28.7045V27.625H57.5858V28.9204C57.5858 30.1438 58.3687 30.7555 59.9343 30.7555C60.7035 30.7555 61.2803 30.6116 61.6648 30.3237C62.0769 30.0179 62.2829 29.5321 62.2829 28.8664C62.2829 28.0748 62.0082 27.3821 61.4588 26.7884C60.9095 26.1767 59.8931 25.4481 58.4099 24.6025C56.542 23.523 55.2373 22.5514 54.4956 21.6878C53.754 20.8063 53.3832 19.8167 53.3832 18.7193C53.3832 17.226 53.96 16.0745 55.1137 15.2649Z" fill="#141414"/>
<path d="M61.8708 17.181C61.6148 16.9773 61.2795 16.8415 60.8651 16.7734V14.0398C62.6778 14.1238 64.0706 14.5321 65.0434 15.2649C66.1696 16.0745 66.7327 17.244 66.7327 18.7732V19.5559H62.4477V18.5843C62.4477 17.9366 62.2554 17.4689 61.8708 17.181Z" fill="#141414"/>
<path d="M74.77 14.2934H70.2378V33.1844H74.77V14.2934Z" fill="#141414"/>
<path d="M100.439 14.2934H95.9071V33.1844H100.439V28.7849L100.439 19.9108L100.439 14.2934Z" fill="#141414"/>
<path d="M102.171 21.9847V24.6834H105.301V33.1844H109.833V14.2934H105.301V21.9847H102.171Z" fill="#141414"/>
<path d="M117.576 16.9921H112.838V14.2934H126.847V16.9921H122.109V33.1844H117.576V16.9921Z" fill="#141414"/>
</svg>
